{
    "asset" : {
        "generator" : "Khronos glTF Blender I/O v1.7.33",
        "version" : "2.0"
    },
    "scene" : 0,
    "scenes" : [
        {
            "name" : "Scene",
            "nodes" : [
                16,
                17
            ]
        }
    ],
    "nodes" : [
        {
            "mesh" : 0,
            "name" : "Object_4"
        },
        {
            "mesh" : 1,
            "name" : "Object_5"
        },
        {
            "mesh" : 2,
            "name" : "Object_6"
        },
        {
            "mesh" : 3,
            "name" : "Object_7"
        },
        {
            "children" : [
                0,
                1,
                2,
                3
            ],
            "name" : "Cube.026_0",
            "translation" : [
                0.24103879928588867,
                0.3011159896850586,
                0.8553533554077148
            ]
        },
        {
            "mesh" : 4,
            "name" : "Object_9"
        },
        {
            "children" : [
                5
            ],
            "name" : "Cube.028_1",
            "translation" : [
                0.06983494758605957,
                0.3011159896850586,
                0.8553533554077148
            ]
        },
        {
            "mesh" : 5,
            "name" : "Object_11"
        },
        {
            "children" : [
                7
            ],
            "name" : "Cube.029_2",
            "translation" : [
                0.06983494758605957,
                0.3011159896850586,
                0.8553533554077148
            ]
        },
        {
            "mesh" : 6,
            "name" : "Object_13"
        },
        {
            "children" : [
                9
            ],
            "name" : "Cube.030_3",
            "translation" : [
                0.06983494758605957,
                0.3011159896850586,
                0.8553533554077148
            ]
        },
        {
            "mesh" : 7,
            "name" : "Object_15",
            "translation" : [
                0.14159011840820312,
                0.38556015491485596,
                -9.192574501037598
            ]
        },
        {
            "mesh" : 8,
            "name" : "Object_16",
            "translation" : [
                0.14159011840820312,
                0.38556015491485596,
                -9.192574501037598
            ]
        },
        {
            "children" : [
                11,
                12
            ],
            "name" : "Cylinder.009_4"
        },
        {
            "children" : [
                4,
                6,
                8,
                10,
                13
            ],
            "name" : "GLTF_SceneRootNode",
            "rotation" : [
                0.7071068286895752,
                0,
                0,
                0.7071068286895752
            ]
        },
        {
            "children" : [
                14
            ],
            "name" : "root"
        },
        {
            "children" : [
                15
            ],
            "name" : "Sketchfab_model",
            "rotation" : [
                -0.7071068286895752,
                0,
                0,
                0.7071068286895752
            ],
            "scale" : [
                1.5703245401382446,
                1.5703245401382446,
                1.5703245401382446
            ],
            "translation" : [
                -0.24191021919250488,
                -0.20544180274009705,
                -1.2130968570709229
            ]
        },
        {
            "mesh" : 9,
            "name" : "fdfd",
            "rotation" : [
                0.5606096982955933,
                0.43094879388809204,
                -0.5606096982955933,
                0.43094882369041443
            ],
            "scale" : [
                0.332785427570343,
                92.4404067993164,
                0.40673768520355225
            ],
            "translation" : [
                3.276093006134033,
                0.4946371614933014,
                0.867918848991394
            ]
        }
    ],
    "materials" : [
        {
            "doubleSided" : true,
            "name" : "Material.008",
            "pbrMetallicRoughness" : {
                "baseColorFactor" : [
                    0.36907899379730225,
                    0.3676469922065735,
                    0.39311400055885315,
                    1
                ],
                "roughnessFactor" : 0.24264700710773468
            }
        },
        {
            "doubleSided" : true,
            "emissiveFactor" : [
                0.06800229847431183,
                0.48467499017715454,
                1
            ],
            "name" : "Material.002",
            "pbrMetallicRoughness" : {}
        },
        {
            "doubleSided" : true,
            "name" : "Material.0042",
            "pbrMetallicRoughness" : {
                "baseColorFactor" : [
                    0.09850379824638367,
                    0.09850379824638367,
                    0.09850379824638367,
                    1
                ],
                "roughnessFactor" : 0.7426469922065735
            }
        },
        {
            "doubleSided" : true,
            "emissiveFactor" : [
                1,
                0.0014935999643057585,
                0.01616870053112507
            ],
            "name" : "Material.010",
            "pbrMetallicRoughness" : {}
        },
        {
            "doubleSided" : true,
            "name" : "Material.005",
            "pbrMetallicRoughness" : {
                "baseColorFactor" : [
                    0.02365019917488098,
                    0.02365019917488098,
                    0.02365019917488098,
                    1
                ],
                "metallicFactor" : 0,
                "roughnessFactor" : 0
            }
        },
        {
            "doubleSided" : true,
            "name" : "Material.004",
            "pbrMetallicRoughness" : {
                "baseColorFactor" : [
                    0.0010314099490642548,
                    0.0010314099490642548,
                    0.0010314099490642548,
                    1
                ],
                "roughnessFactor" : 0.6764709949493408
            }
        },
        {
            "doubleSided" : true,
            "name" : "Material.001",
            "pbrMetallicRoughness" : {
                "baseColorFactor" : [
                    0.3939549922943115,
                    0.39816200733184814,
                    0.41093799471855164,
                    1
                ],
                "roughnessFactor" : 0.24264700710773468
            }
        },
        {
            "doubleSided" : true,
            "name" : "Material.009",
            "pbrMetallicRoughness" : {
                "baseColorFactor" : [
                    0.010195841081440449,
                    0.8000000715255737,
                    0.17938204109668732,
                    1
                ],
                "metallicFactor" : 0,
                "roughnessFactor" : 0.4000000059604645
            }
        }
    ],
    "meshes" : [
        {
            "name" : "Object_0",
            "primitives" : [
                {
                    "attributes" : {
                        "POSITION" : 0,
                        "NORMAL" : 1,
                        "TEXCOORD_0" : 2
                    },
                    "indices" : 3,
                    "material" : 0
                }
            ]
        },
        {
            "name" : "Object_1",
            "primitives" : [
                {
                    "attributes" : {
                        "POSITION" : 4,
                        "NORMAL" : 5,
                        "TEXCOORD_0" : 6
                    },
                    "indices" : 7,
                    "material" : 1
                }
            ]
        },
        {
            "name" : "Object_2",
            "primitives" : [
                {
                    "attributes" : {
                        "POSITION" : 8,
                        "NORMAL" : 9,
                        "TEXCOORD_0" : 10
                    },
                    "indices" : 11,
                    "material" : 2
                }
            ]
        },
        {
            "name" : "Object_3",
            "primitives" : [
                {
                    "attributes" : {
                        "POSITION" : 12,
                        "NORMAL" : 13,
                        "TEXCOORD_0" : 14
                    },
                    "indices" : 15,
                    "material" : 3
                }
            ]
        },
        {
            "name" : "Object_4",
            "primitives" : [
                {
                    "attributes" : {
                        "POSITION" : 16,
                        "NORMAL" : 17,
                        "TEXCOORD_0" : 18
                    },
                    "indices" : 19,
                    "material" : 4
                }
            ]
        },
        {
            "name" : "Object_5",
            "primitives" : [
                {
                    "attributes" : {
                        "POSITION" : 20,
                        "NORMAL" : 21,
                        "TEXCOORD_0" : 22
                    },
                    "indices" : 23,
                    "material" : 4
                }
            ]
        },
        {
            "name" : "Object_6",
            "primitives" : [
                {
                    "attributes" : {
                        "POSITION" : 24,
                        "NORMAL" : 25,
                        "TEXCOORD_0" : 26
                    },
                    "indices" : 27,
                    "material" : 4
                }
            ]
        },
        {
            "name" : "Object_7",
            "primitives" : [
                {
                    "attributes" : {
                        "POSITION" : 28,
                        "NORMAL" : 29,
                        "TEXCOORD_0" : 30
                    },
                    "indices" : 31,
                    "material" : 5
                }
            ]
        },
        {
            "name" : "Object_8",
            "primitives" : [
                {
                    "attributes" : {
                        "POSITION" : 32,
                        "NORMAL" : 33,
                        "TEXCOORD_0" : 34
                    },
                    "indices" : 35,
                    "material" : 6
                }
            ]
        },
        {
            "name" : "Textd",
            "primitives" : [
                {
                    "attributes" : {
                        "POSITION" : 36,
                        "NORMAL" : 37,
                        "TEXCOORD_0" : 38
                    },
                    "indices" : 39,
                    "material" : 7
                }
            ]
        }
    ],
    "accessors" : [
        {
            "bufferView" : 0,
            "componentType" : 5126,
            "count" : 770,
            "max" : [
                1.7396067380905151,
                0.7089611887931824,
                0.5791406631469727
            ],
            "min" : [
                -1.6181013584136963,
                -0.18746984004974365,
                -0.5791406631469727
            ],
            "type" : "VEC3"
        },
        {
            "bufferView" : 1,
            "componentType" : 5126,
            "count" : 770,
            "type" : "VEC3"
        },
        {
            "bufferView" : 2,
            "componentType" : 5126,
            "count" : 770,
            "type" : "VEC2"
        },
        {
            "bufferView" : 3,
            "componentType" : 5123,
            "count" : 870,
            "type" : "SCALAR"
        },
        {
            "bufferView" : 4,
            "componentType" : 5126,
            "count" : 16,
            "max" : [
                -1.4225493669509888,
                0.29198595881462097,
                0.574884295463562
            ],
            "min" : [
                -1.6072518825531006,
                0.20538747310638428,
                -0.574884295463562
            ],
            "type" : "VEC3"
        },
        {
            "bufferView" : 5,
            "componentType" : 5126,
            "count" : 16,
            "type" : "VEC3"
        },
        {
            "bufferView" : 6,
            "componentType" : 5126,
            "count" : 16,
            "type" : "VEC2"
        },
        {
            "bufferView" : 7,
            "componentType" : 5123,
            "count" : 24,
            "type" : "SCALAR"
        },
        {
            "bufferView" : 8,
            "componentType" : 5126,
            "count" : 656,
            "max" : [
                1.7057853937149048,
                0.2804301381111145,
                0.6193094849586487
            ],
            "min" : [
                -1.6036272048950195,
                -0.18746984004974365,
                -0.6193094849586487
            ],
            "type" : "VEC3"
        },
        {
            "bufferView" : 9,
            "componentType" : 5126,
            "count" : 656,
            "type" : "VEC3"
        },
        {
            "bufferView" : 10,
            "componentType" : 5126,
            "count" : 656,
            "type" : "VEC2"
        },
        {
            "bufferView" : 11,
            "componentType" : 5123,
            "count" : 798,
            "type" : "SCALAR"
        },
        {
            "bufferView" : 12,
            "componentType" : 5126,
            "count" : 9,
            "max" : [
                1.7379833459854126,
                0.4357849359512329,
                0.5683041214942932
            ],
            "min" : [
                1.7349727153778076,
                0.415914386510849,
                -0.5683041214942932
            ],
            "type" : "VEC3"
        },
        {
            "bufferView" : 13,
            "componentType" : 5126,
            "count" : 9,
            "type" : "VEC3"
        },
        {
            "bufferView" : 14,
            "componentType" : 5126,
            "count" : 9,
            "type" : "VEC2"
        },
        {
            "bufferView" : 15,
            "componentType" : 5123,
            "count" : 12,
            "type" : "SCALAR"
        },
        {
            "bufferView" : 16,
            "componentType" : 5126,
            "count" : 24,
            "max" : [
                -0.016595065593719482,
                0.7089611887931824,
                0.541641116142273
            ],
            "min" : [
                -1.0196367502212524,
                0.3776519298553467,
                -0.541641116142273
            ],
            "type" : "VEC3"
        },
        {
            "bufferView" : 17,
            "componentType" : 5126,
            "count" : 24,
            "type" : "VEC3"
        },
        {
            "bufferView" : 18,
            "componentType" : 5126,
            "count" : 24,
            "type" : "VEC2"
        },
        {
            "bufferView" : 19,
            "componentType" : 5123,
            "count" : 24,
            "type" : "SCALAR"
        },
        {
            "bufferView" : 20,
            "componentType" : 5126,
            "count" : 34,
            "max" : [
                0.744070291519165,
                0.671466052532196,
                0.5547409653663635
            ],
            "min" : [
                -0.9431027173995972,
                0.36353039741516113,
                -0.5547409653663635
            ],
            "type" : "VEC3"
        },
        {
            "bufferView" : 21,
            "componentType" : 5126,
            "count" : 34,
            "type" : "VEC3"
        },
        {
            "bufferView" : 22,
            "componentType" : 5126,
            "count" : 34,
            "type" : "VEC2"
        },
        {
            "bufferView" : 23,
            "componentType" : 5123,
            "count" : 54,
            "type" : "SCALAR"
        },
        {
            "bufferView" : 24,
            "componentType" : 5126,
            "count" : 12,
            "max" : [
                0.7866774797439575,
                0.5698709487915039,
                0.4208744764328003
            ],
            "min" : [
                0.7606207728385925,
                0.3785220980644226,
                -0.4208744764328003
            ],
            "type" : "VEC3"
        },
        {
            "bufferView" : 25,
            "componentType" : 5126,
            "count" : 12,
            "type" : "VEC3"
        },
        {
            "bufferView" : 26,
            "componentType" : 5126,
            "count" : 12,
            "type" : "VEC2"
        },
        {
            "bufferView" : 27,
            "componentType" : 5123,
            "count" : 12,
            "type" : "SCALAR"
        },
        {
            "bufferView" : 28,
            "componentType" : 5126,
            "count" : 2257,
            "max" : [
                1.4646633863449097,
                0.08275848627090454,
                10.682971000671387
            ],
            "min" : [
                -1.2657660245895386,
                -0.45724162459373474,
                9.412884712219238
            ],
            "type" : "VEC3"
        },
        {
            "bufferView" : 29,
            "componentType" : 5126,
            "count" : 2257,
            "type" : "VEC3"
        },
        {
            "bufferView" : 30,
            "componentType" : 5126,
            "count" : 2257,
            "type" : "VEC2"
        },
        {
            "bufferView" : 31,
            "componentType" : 5123,
            "count" : 2376,
            "type" : "SCALAR"
        },
        {
            "bufferView" : 32,
            "componentType" : 5126,
            "count" : 1339,
            "max" : [
                1.4074435234069824,
                0.02466738224029541,
                10.71318531036377
            ],
            "min" : [
                -1.2085461616516113,
                -0.3902233839035034,
                9.382670402526855
            ],
            "type" : "VEC3"
        },
        {
            "bufferView" : 33,
            "componentType" : 5126,
            "count" : 1339,
            "type" : "VEC3"
        },
        {
            "bufferView" : 34,
            "componentType" : 5126,
            "count" : 1339,
            "type" : "VEC2"
        },
        {
            "bufferView" : 35,
            "componentType" : 5123,
            "count" : 1368,
            "type" : "SCALAR"
        },
        {
            "bufferView" : 36,
            "componentType" : 5126,
            "count" : 1011,
            "max" : [
                4.452000141143799,
                0,
                0.009000000543892384
            ],
            "min" : [
                0,
                0,
                -0.6860000491142273
            ],
            "type" : "VEC3"
        },
        {
            "bufferView" : 37,
            "componentType" : 5126,
            "count" : 1011,
            "type" : "VEC3"
        },
        {
            "bufferView" : 38,
            "componentType" : 5126,
            "count" : 1011,
            "type" : "VEC2"
        },
        {
            "bufferView" : 39,
            "componentType" : 5123,
            "count" : 2241,
            "type" : "SCALAR"
        }
    ],
    "bufferViews" : [
        {
            "buffer" : 0,
            "byteLength" : 9240,
            "byteOffset" : 0
        },
        {
            "buffer" : 0,
            "byteLength" : 9240,
            "byteOffset" : 9240
        },
        {
            "buffer" : 0,
            "byteLength" : 6160,
            "byteOffset" : 18480
        },
        {
            "buffer" : 0,
            "byteLength" : 1740,
            "byteOffset" : 24640
        },
        {
            "buffer" : 0,
            "byteLength" : 192,
            "byteOffset" : 26380
        },
        {
            "buffer" : 0,
            "byteLength" : 192,
            "byteOffset" : 26572
        },
        {
            "buffer" : 0,
            "byteLength" : 128,
            "byteOffset" : 26764
        },
        {
            "buffer" : 0,
            "byteLength" : 48,
            "byteOffset" : 26892
        },
        {
            "buffer" : 0,
            "byteLength" : 7872,
            "byteOffset" : 26940
        },
        {
            "buffer" : 0,
            "byteLength" : 7872,
            "byteOffset" : 34812
        },
        {
            "buffer" : 0,
            "byteLength" : 5248,
            "byteOffset" : 42684
        },
        {
            "buffer" : 0,
            "byteLength" : 1596,
            "byteOffset" : 47932
        },
        {
            "buffer" : 0,
            "byteLength" : 108,
            "byteOffset" : 49528
        },
        {
            "buffer" : 0,
            "byteLength" : 108,
            "byteOffset" : 49636
        },
        {
            "buffer" : 0,
            "byteLength" : 72,
            "byteOffset" : 49744
        },
        {
            "buffer" : 0,
            "byteLength" : 24,
            "byteOffset" : 49816
        },
        {
            "buffer" : 0,
            "byteLength" : 288,
            "byteOffset" : 49840
        },
        {
            "buffer" : 0,
            "byteLength" : 288,
            "byteOffset" : 50128
        },
        {
            "buffer" : 0,
            "byteLength" : 192,
            "byteOffset" : 50416
        },
        {
            "buffer" : 0,
            "byteLength" : 48,
            "byteOffset" : 50608
        },
        {
            "buffer" : 0,
            "byteLength" : 408,
            "byteOffset" : 50656
        },
        {
            "buffer" : 0,
            "byteLength" : 408,
            "byteOffset" : 51064
        },
        {
            "buffer" : 0,
            "byteLength" : 272,
            "byteOffset" : 51472
        },
        {
            "buffer" : 0,
            "byteLength" : 108,
            "byteOffset" : 51744
        },
        {
            "buffer" : 0,
            "byteLength" : 144,
            "byteOffset" : 51852
        },
        {
            "buffer" : 0,
            "byteLength" : 144,
            "byteOffset" : 51996
        },
        {
            "buffer" : 0,
            "byteLength" : 96,
            "byteOffset" : 52140
        },
        {
            "buffer" : 0,
            "byteLength" : 24,
            "byteOffset" : 52236
        },
        {
            "buffer" : 0,
            "byteLength" : 27084,
            "byteOffset" : 52260
        },
        {
            "buffer" : 0,
            "byteLength" : 27084,
            "byteOffset" : 79344
        },
        {
            "buffer" : 0,
            "byteLength" : 18056,
            "byteOffset" : 106428
        },
        {
            "buffer" : 0,
            "byteLength" : 4752,
            "byteOffset" : 124484
        },
        {
            "buffer" : 0,
            "byteLength" : 16068,
            "byteOffset" : 129236
        },
        {
            "buffer" : 0,
            "byteLength" : 16068,
            "byteOffset" : 145304
        },
        {
            "buffer" : 0,
            "byteLength" : 10712,
            "byteOffset" : 161372
        },
        {
            "buffer" : 0,
            "byteLength" : 2736,
            "byteOffset" : 172084
        },
        {
            "buffer" : 0,
            "byteLength" : 12132,
            "byteOffset" : 174820
        },
        {
            "buffer" : 0,
            "byteLength" : 12132,
            "byteOffset" : 186952
        },
        {
            "buffer" : 0,
            "byteLength" : 8088,
            "byteOffset" : 199084
        },
        {
            "buffer" : 0,
            "byteLength" : 4482,
            "byteOffset" : 207172
        }
    ],
    "buffers" : [
        {
            "byteLength" : 211656,
            "uri" : "data:application/octet-stream;base64,"
        }
    ]
}
