{
    "asset" : {
        "generator" : "Khronos glTF Blender I/O v1.7.33",
        "version" : "2.0"
    },
    "scene" : 0,
    "scenes" : [
        {
            "name" : "Scene",
            "nodes" : [
                13,
                14
            ]
        }
    ],
    "nodes" : [
        {
            "mesh" : 0,
            "name" : "Box001__0"
        },
        {
            "mesh" : 1,
            "name" : "Box002__0"
        },
        {
            "children" : [
                1
            ],
            "name" : "Object_9",
            "translation" : [
                0,
                -6.087306022644043,
                -0.09742848575115204
            ]
        },
        {
            "children" : [
                2
            ],
            "name" : "Box002",
            "rotation" : [
                0,
                -0.737677812576294,
                0.6751528978347778,
                2.9511870280884978e-08
            ],
            "translation" : [
                -0.2666965425014496,
                -58.957916259765625,
                -4.13897705078125
            ]
        },
        {
            "mesh" : 2,
            "name" : "Object002__0"
        },
        {
            "children" : [
                4
            ],
            "name" : "Object_6",
            "translation" : [
                2.5427452783333138e-06,
                -29.52728843688965,
                -49.72633361816406
            ]
        },
        {
            "children" : [
                3,
                5
            ],
            "name" : "Object002",
            "rotation" : [
                0,
                0.7930304408073425,
                -0.6091820001602173,
                3.4664459747091314e-08
            ],
            "translation" : [
                0,
                29.52728843688965,
                19.68848419189453
            ]
        },
        {
            "mesh" : 3,
            "name" : "Object003__0"
        },
        {
            "children" : [
                7
            ],
            "name" : "Object_12",
            "translation" : [
                0.000301361083984375,
                0.0019922256469726562,
                -17.31564712524414
            ]
        },
        {
            "children" : [
                8
            ],
            "name" : "Object003",
            "translation" : [
                -0.000301361083984375,
                -0.0019931793212890625,
                17.31564712524414
            ]
        },
        {
            "children" : [
                0,
                6,
                9
            ],
            "name" : "Box001",
            "rotation" : [
                -0.7071068286895752,
                0,
                0,
                0.7071068286895752
            ]
        },
        {
            "children" : [
                10
            ],
            "name" : "RootNode"
        },
        {
            "children" : [
                11
            ],
            "name" : "af2c9e03ccb74f65a361418b6f64dba9.fbx",
            "rotation" : [
                0.7071068286895752,
                0,
                0,
                0.7071068286895752
            ]
        },
        {
            "children" : [
                12
            ],
            "name" : "Sketchfab_model",
            "rotation" : [
                -0.7071068286895752,
                0,
                0,
                0.7071068286895752
            ]
        },
        {
            "mesh" : 4,
            "name" : "qr-code",
            "rotation" : [
                0.5,
                0.5,
                -0.5,
                0.4999999701976776
            ],
            "scale" : [
                12.5,
                1,
                12.5
            ],
            "translation" : [
                29.678926467895508,
                10.181830406188965,
                -0.05413055419921875
            ]
        }
    ],
    "materials" : [
        {
            "doubleSided" : true,
            "name" : "Scene_-_Root",
            "normalTexture" : {
                "index" : 0
            },
            "occlusionTexture" : {
                "index" : 1
            },
            "pbrMetallicRoughness" : {
                "baseColorTexture" : {
                    "index" : 2
                },
                "metallicFactor" : 0,
                "metallicRoughnessTexture" : {
                    "index" : 1
                }
            }
        },
        {
            "alphaMode" : "BLEND",
            "doubleSided" : true,
            "name" : "qr-code",
            "pbrMetallicRoughness" : {
                "baseColorTexture" : {
                    "index" : 3
                },
                "metallicFactor" : 0,
                "roughnessFactor" : 0.5
            }
        }
    ],
    "meshes" : [
        {
            "name" : "Box001__0",
            "primitives" : [
                {
                    "attributes" : {
                        "POSITION" : 0,
                        "NORMAL" : 1,
                        "TEXCOORD_0" : 2
                    },
                    "indices" : 3,
                    "material" : 0
                }
            ]
        },
        {
            "name" : "Box002__0",
            "primitives" : [
                {
                    "attributes" : {
                        "POSITION" : 4,
                        "NORMAL" : 5,
                        "TEXCOORD_0" : 6
                    },
                    "indices" : 7,
                    "material" : 0
                }
            ]
        },
        {
            "name" : "Object002__0",
            "primitives" : [
                {
                    "attributes" : {
                        "POSITION" : 8,
                        "NORMAL" : 9,
                        "TEXCOORD_0" : 10
                    },
                    "indices" : 11,
                    "material" : 0
                }
            ]
        },
        {
            "name" : "Object003__0",
            "primitives" : [
                {
                    "attributes" : {
                        "POSITION" : 12,
                        "NORMAL" : 13,
                        "TEXCOORD_0" : 14
                    },
                    "indices" : 15,
                    "material" : 0
                }
            ]
        },
        {
            "name" : "qr-code",
            "primitives" : [
                {
                    "attributes" : {
                        "POSITION" : 16,
                        "NORMAL" : 17,
                        "TEXCOORD_0" : 18
                    },
                    "indices" : 19,
                    "material" : 1
                }
            ]
        }
    ],
    "textures" : [
        {
            "sampler" : 0,
            "source" : 0
        },
        {
            "sampler" : 0,
            "source" : 1
        },
        {
            "sampler" : 0,
            "source" : 2
        },
        {
            "sampler" : 1,
            "source" : 3
        }
    ],
    "images" : [
        {
            "mimeType" : "image/png",
            "name" : "Scene_-_Root_normal",
            "uri" : "Scene_-_Root_normal.png"
        },
        {
            "mimeType" : "image/png",
            "name" : "Scene_-_Root_metallicRoughness",
            "uri" : "Scene_-_Root_metallicRoughness.png"
        },
        {
            "mimeType" : "image/png",
            "name" : "Scene_-_Root_baseColor",
            "uri" : "Scene_-_Root_baseColor.png"
        },
        {
            "mimeType" : "image/png",
            "name" : "qr-code",
            "uri" : "qr-code.png"
        }
    ],
    "accessors" : [
        {
            "bufferView" : 0,
            "componentType" : 5126,
            "count" : 3477,
            "max" : [
                29.527559280395508,
                29.94384002685547,
                26.506038665771484
            ],
            "min" : [
                -29.52756118774414,
                -31.333934783935547,
                2.4103188514709473
            ],
            "type" : "VEC3"
        },
        {
            "bufferView" : 1,
            "componentType" : 5126,
            "count" : 3477,
            "type" : "VEC3"
        },
        {
            "bufferView" : 2,
            "componentType" : 5126,
            "count" : 3477,
            "type" : "VEC2"
        },
        {
            "bufferView" : 3,
            "componentType" : 5123,
            "count" : 6582,
            "type" : "SCALAR"
        },
        {
            "bufferView" : 4,
            "componentType" : 5126,
            "count" : 390,
            "max" : [
                1.3833296298980713,
                6.179267883300781,
                0.1931709200143814
            ],
            "min" : [
                -1.3833295106887817,
                -2.9559946060180664,
                -0.00029744207859039307
            ],
            "type" : "VEC3"
        },
        {
            "bufferView" : 5,
            "componentType" : 5126,
            "count" : 390,
            "type" : "VEC3"
        },
        {
            "bufferView" : 6,
            "componentType" : 5126,
            "count" : 390,
            "type" : "VEC2"
        },
        {
            "bufferView" : 7,
            "componentType" : 5123,
            "count" : 552,
            "type" : "SCALAR"
        },
        {
            "bufferView" : 8,
            "componentType" : 5126,
            "count" : 2885,
            "max" : [
                29.527557373046875,
                29.527559280395508,
                49.72772979736328
            ],
            "min" : [
                -29.52756118774414,
                -29.527559280395508,
                35.33351135253906
            ],
            "type" : "VEC3"
        },
        {
            "bufferView" : 9,
            "componentType" : 5126,
            "count" : 2885,
            "type" : "VEC3"
        },
        {
            "bufferView" : 10,
            "componentType" : 5126,
            "count" : 2885,
            "type" : "VEC2"
        },
        {
            "bufferView" : 11,
            "componentType" : 5123,
            "count" : 9984,
            "type" : "SCALAR"
        },
        {
            "bufferView" : 12,
            "componentType" : 5126,
            "count" : 89,
            "max" : [
                25.115381240844727,
                25.11180877685547,
                17.31559944152832
            ],
            "min" : [
                -25.115983963012695,
                -25.115793228149414,
                17.315597534179688
            ],
            "type" : "VEC3"
        },
        {
            "bufferView" : 13,
            "componentType" : 5126,
            "count" : 89,
            "type" : "VEC3"
        },
        {
            "bufferView" : 14,
            "componentType" : 5126,
            "count" : 89,
            "type" : "VEC2"
        },
        {
            "bufferView" : 15,
            "componentType" : 5123,
            "count" : 90,
            "type" : "SCALAR"
        },
        {
            "bufferView" : 16,
            "componentType" : 5126,
            "count" : 4,
            "max" : [
                0.5,
                0,
                0.5
            ],
            "min" : [
                -0.5,
                0,
                -0.5
            ],
            "type" : "VEC3"
        },
        {
            "bufferView" : 17,
            "componentType" : 5126,
            "count" : 4,
            "type" : "VEC3"
        },
        {
            "bufferView" : 18,
            "componentType" : 5126,
            "count" : 4,
            "type" : "VEC2"
        },
        {
            "bufferView" : 19,
            "componentType" : 5123,
            "count" : 6,
            "type" : "SCALAR"
        }
    ],
    "bufferViews" : [
        {
            "buffer" : 0,
            "byteLength" : 41724,
            "byteOffset" : 0
        },
        {
            "buffer" : 0,
            "byteLength" : 41724,
            "byteOffset" : 41724
        },
        {
            "buffer" : 0,
            "byteLength" : 27816,
            "byteOffset" : 83448
        },
        {
            "buffer" : 0,
            "byteLength" : 13164,
            "byteOffset" : 111264
        },
        {
            "buffer" : 0,
            "byteLength" : 4680,
            "byteOffset" : 124428
        },
        {
            "buffer" : 0,
            "byteLength" : 4680,
            "byteOffset" : 129108
        },
        {
            "buffer" : 0,
            "byteLength" : 3120,
            "byteOffset" : 133788
        },
        {
            "buffer" : 0,
            "byteLength" : 1104,
            "byteOffset" : 136908
        },
        {
            "buffer" : 0,
            "byteLength" : 34620,
            "byteOffset" : 138012
        },
        {
            "buffer" : 0,
            "byteLength" : 34620,
            "byteOffset" : 172632
        },
        {
            "buffer" : 0,
            "byteLength" : 23080,
            "byteOffset" : 207252
        },
        {
            "buffer" : 0,
            "byteLength" : 19968,
            "byteOffset" : 230332
        },
        {
            "buffer" : 0,
            "byteLength" : 1068,
            "byteOffset" : 250300
        },
        {
            "buffer" : 0,
            "byteLength" : 1068,
            "byteOffset" : 251368
        },
        {
            "buffer" : 0,
            "byteLength" : 712,
            "byteOffset" : 252436
        },
        {
            "buffer" : 0,
            "byteLength" : 180,
            "byteOffset" : 253148
        },
        {
            "buffer" : 0,
            "byteLength" : 48,
            "byteOffset" : 253328
        },
        {
            "buffer" : 0,
            "byteLength" : 48,
            "byteOffset" : 253376
        },
        {
            "buffer" : 0,
            "byteLength" : 32,
            "byteOffset" : 253424
        },
        {
            "buffer" : 0,
            "byteLength" : 12,
            "byteOffset" : 253456
        }
    ],
    "samplers" : [
        {
            "magFilter" : 9729,
            "minFilter" : 9987
        },
        {
            "magFilter" : 9729,
            "minFilter" : 9987,
            "wrapS" : 33071,
            "wrapT" : 33071
        }
    ],
    "buffers" : [
        {
            "byteLength" : 253468,
            "uri" : "compass.bin"
        }
    ]
}
