{
  "accessors": [
    {
      "bufferView": 2,
      "componentType": 5126,
      "count": 2781,
      "max": [
        29.527559280395508,
        29.94384002685547,
        26.506038665771484
      ],
      "min": [
        -29.52756118774414,
        -31.333934783935547,
        2.4103188514709473
      ],
      "type": "VEC3"
    },
    {
      "bufferView": 2,
      "byteOffset": 33372,
      "componentType": 5126,
      "count": 2781,
      "max": [
        1.0,
        1.0,
        1.0
      ],
      "min": [
        -1.0,
        -1.0,
        -1.0
      ],
      "type": "VEC3"
    },
    {
      "bufferView": 3,
      "componentType": 5126,
      "count": 2781,
      "max": [
        1.0,
        1.0,
        1.0,
        1.0
      ],
      "min": [
        -1.0,
        -1.0,
        -1.0,
        -1.0
      ],
      "type": "VEC4"
    },
    {
      "bufferView": 1,
      "componentType": 5126,
      "count": 2781,
      "max": [
        0.9959591627120972,
        0.9924193620681763
      ],
      "min": [
        0.0005000000237487257,
        0.0005000000237487257
      ],
      "type": "VEC2"
    },
    {
      "bufferView": 0,
      "componentType": 5125,
      "count": 6582,
      "type": "SCALAR"
    },
    {
      "bufferView": 2,
      "byteOffset": 66744,
      "componentType": 5126,
      "count": 2610,
      "max": [
        29.527557373046875,
        29.527559280395508,
        49.72772979736328
      ],
      "min": [
        -29.52756118774414,
        -29.527559280395508,
        35.33351135253906
      ],
      "type": "VEC3"
    },
    {
      "bufferView": 2,
      "byteOffset": 98064,
      "componentType": 5126,
      "count": 2610,
      "max": [
        1.0,
        1.0,
        1.0
      ],
      "min": [
        -1.0,
        -1.0,
        -1.0
      ],
      "type": "VEC3"
    },
    {
      "bufferView": 3,
      "byteOffset": 44496,
      "componentType": 5126,
      "count": 2610,
      "max": [
        1.0,
        1.0,
        1.0,
        1.0
      ],
      "min": [
        -1.0,
        -1.0,
        -1.0,
        1.0
      ],
      "type": "VEC4"
    },
    {
      "bufferView": 1,
      "byteOffset": 22248,
      "componentType": 5126,
      "count": 2610,
      "max": [
        0.9994999766349792,
        0.9944809675216675
      ],
      "min": [
        0.0005000000237487257,
        0.0005000000237487257
      ],
      "type": "VEC2"
    },
    {
      "bufferView": 0,
      "byteOffset": 26328,
      "componentType": 5125,
      "count": 9984,
      "type": "SCALAR"
    },
    {
      "bufferView": 2,
      "byteOffset": 129384,
      "componentType": 5126,
      "count": 314,
      "max": [
        1.3833296298980713,
        6.179267883300781,
        0.1931709200143814
      ],
      "min": [
        -1.3833295106887817,
        -2.9559946060180664,
        -0.00029744207859039307
      ],
      "type": "VEC3"
    },
    {
      "bufferView": 2,
      "byteOffset": 133152,
      "componentType": 5126,
      "count": 314,
      "max": [
        1.0,
        1.0,
        1.0
      ],
      "min": [
        -1.0,
        -1.0,
        -1.0
      ],
      "type": "VEC3"
    },
    {
      "bufferView": 3,
      "byteOffset": 86256,
      "componentType": 5126,
      "count": 314,
      "max": [
        1.0,
        1.0,
        0.007985626347362995,
        1.0
      ],
      "min": [
        -1.0,
        -1.0,
        -1.0,
        -1.0
      ],
      "type": "VEC4"
    },
    {
      "bufferView": 1,
      "byteOffset": 43128,
      "componentType": 5126,
      "count": 314,
      "max": [
        0.7795169353485107,
        0.8012136220932007
      ],
      "min": [
        0.0005000000237487257,
        0.010113099589943886
      ],
      "type": "VEC2"
    },
    {
      "bufferView": 0,
      "byteOffset": 66264,
      "componentType": 5125,
      "count": 552,
      "type": "SCALAR"
    },
    {
      "bufferView": 2,
      "byteOffset": 136920,
      "componentType": 5126,
      "count": 32,
      "max": [
        25.115381240844727,
        25.11180877685547,
        17.31559944152832
      ],
      "min": [
        -25.115983963012695,
        -25.115793228149414,
        17.315597534179688
      ],
      "type": "VEC3"
    },
    {
      "bufferView": 2,
      "byteOffset": 137304,
      "componentType": 5126,
      "count": 32,
      "max": [
        9.375262948196905e-07,
        1.7533490108689875e-06,
        1.0
      ],
      "min": [
        -1.8970948758578743e-06,
        -9.702005172584904e-07,
        1.0
      ],
      "type": "VEC3"
    },
    {
      "bufferView": 3,
      "byteOffset": 91280,
      "componentType": 5126,
      "count": 32,
      "max": [
        0.8829576969146729,
        -0.46945273876190186,
        1.9450114905339433e-06,
        1.0
      ],
      "min": [
        0.8829428553581238,
        -0.4694805443286896,
        -1.7242891203750332e-07,
        1.0
      ],
      "type": "VEC4"
    },
    {
      "bufferView": 1,
      "byteOffset": 45640,
      "componentType": 5126,
      "count": 32,
      "max": [
        0.4945635497570038,
        0.7539494633674622
      ],
      "min": [
        0.26966673135757446,
        0.529220461845398
      ],
      "type": "VEC2"
    },
    {
      "bufferView": 0,
      "byteOffset": 68472,
      "componentType": 5125,
      "count": 90,
      "type": "SCALAR"
    }
  ],
  "asset": {
    "extras": {
      "author": "Stanlock (https://sketchfab.com/ALEX010)",
      "license": "CC-BY-4.0 (http://creativecommons.org/licenses/by/4.0/)",
      "source": "https://sketchfab.com/3d-models/jack-sparrows-compass-e709b41980274adb8dacba4b1ebeb519",
      "title": "Jack Sparrow's compass"
    },
    "generator": "Sketchfab-12.65.0",
    "version": "2.0"
  },
  "bufferViews": [
    {
      "buffer": 0,
      "byteLength": 68832,
      "name": "floatBufferViews",
      "target": 34963
    },
    {
      "buffer": 0,
      "byteLength": 45896,
      "byteOffset": 68832,
      "byteStride": 8,
      "name": "floatBufferViews",
      "target": 34962
    },
    {
      "buffer": 0,
      "byteLength": 137688,
      "byteOffset": 114728,
      "byteStride": 12,
      "name": "floatBufferViews",
      "target": 34962
    },
    {
      "buffer": 0,
      "byteLength": 91792,
      "byteOffset": 252416,
      "byteStride": 16,
      "name": "floatBufferViews",
      "target": 34962
    }
  ],
  "buffers": [
    {
      "byteLength": 344208,
      "uri": "scene.bin"
    }
  ],
  "images": [
    {
      "uri": "textures/Scene_-_Root_baseColor.png"
    },
    {
      "uri": "textures/Scene_-_Root_metallicRoughness.png"
    },
    {
      "uri": "textures/Scene_-_Root_normal.png"
    }
  ],
  "materials": [
    {
      "doubleSided": true,
      "name": "Scene_-_Root",
      "normalTexture": {
        "index": 2
      },
      "occlusionTexture": {
        "index": 1
      },
      "pbrMetallicRoughness": {
        "baseColorTexture": {
          "index": 0
        },
        "metallicFactor": 0.0,
        "metallicRoughnessTexture": {
          "index": 1
        }
      }
    }
  ],
  "meshes": [
    {
      "name": "Box001__0",
      "primitives": [
        {
          "attributes": {
            "NORMAL": 1,
            "POSITION": 0,
            "TANGENT": 2,
            "TEXCOORD_0": 3
          },
          "indices": 4,
          "material": 0,
          "mode": 4
        }
      ]
    },
    {
      "name": "Object002__0",
      "primitives": [
        {
          "attributes": {
            "NORMAL": 6,
            "POSITION": 5,
            "TANGENT": 7,
            "TEXCOORD_0": 8
          },
          "indices": 9,
          "material": 0,
          "mode": 4
        }
      ]
    },
    {
      "name": "Box002__0",
      "primitives": [
        {
          "attributes": {
            "NORMAL": 11,
            "POSITION": 10,
            "TANGENT": 12,
            "TEXCOORD_0": 13
          },
          "indices": 14,
          "material": 0,
          "mode": 4
        }
      ]
    },
    {
      "name": "Object003__0",
      "primitives": [
        {
          "attributes": {
            "NORMAL": 16,
            "POSITION": 15,
            "TANGENT": 17,
            "TEXCOORD_0": 18
          },
          "indices": 19,
          "material": 0,
          "mode": 4
        }
      ]
    }
  ],
  "nodes": [
    {
      "children": [
        1
      ],
      "matrix": [
        1.0,
        0.0,
        0.0,
        0.0,
        0.0,
        2.220446049250313e-16,
        -1.0,
        0.0,
        0.0,
        1.0,
        2.220446049250313e-16,
        0.0,
        0.0,
        0.0,
        0.0,
        1.0
      ],
      "name": "Sketchfab_model"
    },
    {
      "children": [
        2
      ],
      "matrix": [
        1.0,
        0.0,
        0.0,
        0.0,
        0.0,
        0.0,
        1.0,
        0.0,
        0.0,
        -1.0,
        0.0,
        0.0,
        0.0,
        0.0,
        0.0,
        1.0
      ],
      "name": "af2c9e03ccb74f65a361418b6f64dba9.fbx"
    },
    {
      "children": [
        3
      ],
      "name": "RootNode"
    },
    {
      "children": [
        4,
        5,
        11
      ],
      "matrix": [
        1.0,
        0.0,
        0.0,
        0.0,
        0.0,
        2.220446049250313e-16,
        -1.0,
        0.0,
        0.0,
        1.0,
        2.220446049250313e-16,
        0.0,
        0.0,
        0.0,
        0.0,
        1.0
      ],
      "name": "Box001"
    },
    {
      "mesh": 0,
      "name": "Box001__0"
    },
    {
      "children": [
        6,
        8
      ],
      "matrix": [
        -0.9999999999999964,
        1.2246469187596169e-16,
        -8.742277657347551e-08,
        0.0,
        8.446786529093514e-08,
        0.25779455867901824,
        -0.9661997544584054,
        0.0,
        2.2537115986928186e-08,
        -0.9661997544584092,
        -0.25779455867901735,
        0.0,
        6.8619101512013e-08,
        29.52728843688965,
        19.68848419189453,
        1.0
      ],
      "name": "Object002"
    },
    {
      "children": [
        7
      ],
      "matrix": [
        1.0,
        0.0,
        -0.0,
        0.0,
        0.0,
        1.0,
        0.0,
        0.0,
        0.0,
        0.0,
        1.0,
        0.0,
        2.5427452783333138e-06,
        -29.52728843688965,
        -49.72633361816406,
        1.0
      ],
      "name": "Object_6"
    },
    {
      "mesh": 1,
      "name": "Object002__0"
    },
    {
      "children": [
        9
      ],
      "matrix": [
        -0.9999999999999964,
        8.742276959051307e-08,
        6.617444900424222e-24,
        0.0,
        7.722671985527486e-09,
        0.08833707764808107,
        -0.9960906388038173,
        0.0,
        -8.70810024074131e-08,
        -0.9960906388038135,
        -0.08833707764808163,
        0.0,
        -0.2666965425014496,
        -58.957916259765625,
        -4.13897705078125,
        1.0
      ],
      "name": "Box002"
    },
    {
      "children": [
        10
      ],
      "matrix": [
        1.0,
        0.0,
        -0.0,
        0.0,
        0.0,
        1.0,
        0.0,
        0.0,
        0.0,
        0.0,
        1.0,
        0.0,
        -2.7710171934813843e-07,
        -6.087306022644043,
        -0.09742848575115204,
        1.0
      ],
      "name": "Object_9"
    },
    {
      "mesh": 2,
      "name": "Box002__0"
    },
    {
      "children": [
        12
      ],
      "matrix": [
        0.9999999999999957,
        8.467905132647467e-08,
        -3.759398836677959e-08,
        0.0,
        -8.467905132647473e-08,
        0.9999999999999964,
        -3.944304526105059e-31,
        0.0,
        3.7593988366779456e-08,
        3.1834232704774227e-15,
        0.9999999999999993,
        0.0,
        -0.000301361083984375,
        -0.0019931793212890625,
        17.31564712524414,
        1.0
      ],
      "name": "Object003"
    },
    {
      "children": [
        13
      ],
      "matrix": [
        1.0,
        0.0,
        -0.0,
        0.0,
        0.0,
        1.0,
        0.0,
        0.0,
        0.0,
        0.0,
        1.0,
        0.0,
        0.000301361083984375,
        0.0019922256469726563,
        -17.31564712524414,
        1.0
      ],
      "name": "Object_12"
    },
    {
      "mesh": 3,
      "name": "Object003__0"
    }
  ],
  "samplers": [
    {
      "magFilter": 9729,
      "minFilter": 9987,
      "wrapS": 10497,
      "wrapT": 10497
    }
  ],
  "scene": 0,
  "scenes": [
    {
      "name": "Sketchfab_Scene",
      "nodes": [
        0
      ]
    }
  ],
  "textures": [
    {
      "sampler": 0,
      "source": 0
    },
    {
      "sampler": 0,
      "source": 1
    },
    {
      "sampler": 0,
      "source": 2
    }
  ]
}
