{
  "accessors": [
    {
      "bufferView": 2,
      "componentType": 5126,
      "count": 65532,
      "max": [
        2.7242929935455322,
        -4.003687858581543,
        3.590794086456299
      ],
      "min": [
        -18.271007537841797,
        -13.84103775024414,
        -7.424342155456543
      ],
      "type": "VEC3"
    },
    {
      "bufferView": 2,
      "byteOffset": 786384,
      "componentType": 5126,
      "count": 65532,
      "max": [
        0.9999769926071167,
        0.9998788833618164,
        1.0
      ],
      "min": [
        -0.999963641166687,
        -0.9163143038749695,
        -0.9999732375144958
      ],
      "type": "VEC3"
    },
    {
      "bufferView": 3,
      "componentType": 5126,
      "count": 65532,
      "max": [
        0.7529411911964417,
        0.7529411911964417,
        0.7529411911964417,
        1.0
      ],
      "min": [
        0.7529411911964417,
        0.7529411911964417,
        0.7529411911964417,
        1.0
      ],
      "type": "VEC4"
    },
    {
      "bufferView": 1,
      "componentType": 5126,
      "count": 65532,
      "max": [
        0.9919430017471313,
        0.8588860034942627
      ],
      "min": [
        0.008086999878287315,
        0.011043000034987926
      ],
      "type": "VEC2"
    },
    {
      "bufferView": 0,
      "componentType": 5125,
      "count": 201885,
      "type": "SCALAR"
    },
    {
      "bufferView": 2,
      "byteOffset": 1572768,
      "componentType": 5126,
      "count": 65532,
      "max": [
        2.3964040279388428,
        -4.083390235900879,
        3.7538599967956543
      ],
      "min": [
        -18.023128509521484,
        -13.954364776611328,
        -7.432355880737305
      ],
      "type": "VEC3"
    },
    {
      "bufferView": 2,
      "byteOffset": 2359152,
      "componentType": 5126,
      "count": 65532,
      "max": [
        0.9999901056289673,
        0.9999907612800598,
        0.9999862313270569
      ],
      "min": [
        -0.9946302175521851,
        -0.5602033734321594,
        -0.9991548657417297
      ],
      "type": "VEC3"
    },
    {
      "bufferView": 3,
      "byteOffset": 1048512,
      "componentType": 5126,
      "count": 65532,
      "max": [
        0.7529411911964417,
        0.7529411911964417,
        0.7529411911964417,
        1.0
      ],
      "min": [
        0.7529411911964417,
        0.7529411911964417,
        0.7529411911964417,
        1.0
      ],
      "type": "VEC4"
    },
    {
      "bufferView": 1,
      "byteOffset": 524256,
      "componentType": 5126,
      "count": 65532,
      "max": [
        0.9916970133781433,
        0.9406369924545288
      ],
      "min": [
        0.008084000088274479,
        0.2719990015029907
      ],
      "type": "VEC2"
    },
    {
      "bufferView": 0,
      "byteOffset": 807540,
      "componentType": 5125,
      "count": 352590,
      "type": "SCALAR"
    },
    {
      "bufferView": 2,
      "byteOffset": 3145536,
      "componentType": 5126,
      "count": 65532,
      "max": [
        2.7414000034332275,
        -3.0920250415802,
        3.5119080543518066
      ],
      "min": [
        -17.895917892456055,
        -13.38479232788086,
        -6.759937763214111
      ],
      "type": "VEC3"
    },
    {
      "bufferView": 2,
      "byteOffset": 3931920,
      "componentType": 5126,
      "count": 65532,
      "max": [
        0.9999769926071167,
        0.9999463558197021,
        0.9997803568840027
      ],
      "min": [
        -0.9104401469230652,
        -0.43674489855766296,
        -0.9998031258583069
      ],
      "type": "VEC3"
    },
    {
      "bufferView": 3,
      "byteOffset": 2097024,
      "componentType": 5126,
      "count": 65532,
      "max": [
        0.7529411911964417,
        0.7529411911964417,
        0.7529411911964417,
        1.0
      ],
      "min": [
        0.7529411911964417,
        0.7529411911964417,
        0.7529411911964417,
        1.0
      ],
      "type": "VEC4"
    },
    {
      "bufferView": 1,
      "byteOffset": 1048512,
      "componentType": 5126,
      "count": 65532,
      "max": [
        0.9615200161933899,
        0.9919430017471313
      ],
      "min": [
        0.008124000392854214,
        0.6492760181427002
      ],
      "type": "VEC2"
    },
    {
      "bufferView": 0,
      "byteOffset": 2217900,
      "componentType": 5125,
      "count": 362244,
      "type": "SCALAR"
    },
    {
      "bufferView": 2,
      "byteOffset": 4718304,
      "componentType": 5126,
      "count": 48862,
      "max": [
        2.772321939468384,
        -3.8754849433898926,
        3.390932083129883
      ],
      "min": [
        -18.32556915283203,
        -13.73504638671875,
        -7.537251949310303
      ],
      "type": "VEC3"
    },
    {
      "bufferView": 2,
      "byteOffset": 5304648,
      "componentType": 5126,
      "count": 48862,
      "max": [
        0.9999867677688599,
        0.9999995231628418,
        0.9999380111694336
      ],
      "min": [
        -0.9541447758674622,
        -0.47843924164772034,
        -0.9981402158737183
      ],
      "type": "VEC3"
    },
    {
      "bufferView": 3,
      "byteOffset": 3145536,
      "componentType": 5126,
      "count": 48862,
      "max": [
        0.7529411911964417,
        0.7529411911964417,
        0.7529411911964417,
        1.0
      ],
      "min": [
        0.7529411911964417,
        0.7529411911964417,
        0.7529411911964417,
        1.0
      ],
      "type": "VEC4"
    },
    {
      "bufferView": 1,
      "byteOffset": 1572768,
      "componentType": 5126,
      "count": 48862,
      "max": [
        0.9899619817733765,
        0.9917809963226318
      ],
      "min": [
        0.00808900035917759,
        0.4348370134830475
      ],
      "type": "VEC2"
    },
    {
      "bufferView": 0,
      "byteOffset": 3666876,
      "componentType": 5125,
      "count": 268683,
      "type": "SCALAR"
    },
    {
      "bufferView": 2,
      "byteOffset": 5890992,
      "componentType": 5126,
      "count": 1556,
      "max": [
        2.119410991668701,
        -3.8754849433898926,
        2.386828899383545
      ],
      "min": [
        -17.59971046447754,
        -13.674558639526367,
        -7.545319080352783
      ],
      "type": "VEC3"
    },
    {
      "bufferView": 2,
      "byteOffset": 5909664,
      "componentType": 5126,
      "count": 1556,
      "max": [
        0.999566376209259,
        0.9786443710327148,
        0.9999862313270569
      ],
      "min": [
        -0.9981103539466858,
        -0.42844486236572266,
        -0.9998049736022949
      ],
      "type": "VEC3"
    },
    {
      "bufferView": 3,
      "byteOffset": 3927328,
      "componentType": 5126,
      "count": 1556,
      "max": [
        0.7529411911964417,
        0.7529411911964417,
        0.7529411911964417,
        1.0
      ],
      "min": [
        0.7529411911964417,
        0.7529411911964417,
        0.7529411911964417,
        1.0
      ],
      "type": "VEC4"
    },
    {
      "bufferView": 1,
      "byteOffset": 1963664,
      "componentType": 5126,
      "count": 1556,
      "max": [
        0.9843389987945557,
        0.9882339835166931
      ],
      "min": [
        0.011718999594449997,
        0.015873000025749207
      ],
      "type": "VEC2"
    },
    {
      "bufferView": 0,
      "byteOffset": 4741608,
      "componentType": 5125,
      "count": 2679,
      "type": "SCALAR"
    },
    {
      "bufferView": 2,
      "byteOffset": 5928336,
      "componentType": 5126,
      "count": 1373,
      "max": [
        2.1678030490875244,
        -4.056950092315674,
        2.6305410861968994
      ],
      "min": [
        -18.204591751098633,
        -13.614070892333984,
        -7.340077877044678
      ],
      "type": "VEC3"
    },
    {
      "bufferView": 2,
      "byteOffset": 5944812,
      "componentType": 5126,
      "count": 1373,
      "max": [
        0.9996592402458191,
        0.9931060075759888,
        0.9995501041412354
      ],
      "min": [
        -0.9894972443580627,
        -0.43914204835891724,
        -0.9998243451118469
      ],
      "type": "VEC3"
    },
    {
      "bufferView": 3,
      "byteOffset": 3952224,
      "componentType": 5126,
      "count": 1373,
      "max": [
        0.7529411911964417,
        0.7529411911964417,
        0.7529411911964417,
        1.0
      ],
      "min": [
        0.7529411911964417,
        0.7529411911964417,
        0.7529411911964417,
        1.0
      ],
      "type": "VEC4"
    },
    {
      "bufferView": 1,
      "byteOffset": 1976112,
      "componentType": 5126,
      "count": 1373,
      "max": [
        0.9834889769554138,
        0.9882810115814209
      ],
      "min": [
        0.011731999926269054,
        0.2070319950580597
      ],
      "type": "VEC2"
    },
    {
      "bufferView": 0,
      "byteOffset": 4752324,
      "componentType": 5125,
      "count": 1662,
      "type": "SCALAR"
    }
  ],
  "asset": {
    "extras": {
      "author": "Perspectiv (https://sketchfab.com/nagaraj.bhat)",
      "license": "CC-BY-4.0 (http://creativecommons.org/licenses/by/4.0/)",
      "source": "https://sketchfab.com/3d-models/channakeshwara-temple-wall-3d-scan-874fda1f754248659c84605dccc66e79",
      "title": "Channakeshwara Temple Wall 3D Scan"
    },
    "generator": "Sketchfab-12.66.0",
    "version": "2.0"
  },
  "bufferViews": [
    {
      "buffer": 0,
      "byteLength": 4758972,
      "name": "floatBufferViews",
      "target": 34963
    },
    {
      "buffer": 0,
      "byteLength": 1987096,
      "byteOffset": 4758972,
      "byteStride": 8,
      "name": "floatBufferViews",
      "target": 34962
    },
    {
      "buffer": 0,
      "byteLength": 5961288,
      "byteOffset": 6746068,
      "byteStride": 12,
      "name": "floatBufferViews",
      "target": 34962
    },
    {
      "buffer": 0,
      "byteLength": 3974192,
      "byteOffset": 12707356,
      "byteStride": 16,
      "name": "floatBufferViews",
      "target": 34962
    }
  ],
  "buffers": [
    {
      "byteLength": 16681548,
      "uri": "scene.bin"
    }
  ],
  "extensionsRequired": [
    "KHR_materials_pbrSpecularGlossiness"
  ],
  "extensionsUsed": [
    "KHR_materials_pbrSpecularGlossiness"
  ],
  "images": [
    {
      "uri": "textures/material_0_diffuse.jpeg"
    },
    {
      "uri": "textures/material_2_diffuse.jpeg"
    }
  ],
  "materials": [
    {
      "doubleSided": true,
      "extensions": {
        "KHR_materials_pbrSpecularGlossiness": {
          "diffuseFactor": [
            1.0,
            1.0,
            1.0,
            1.0
          ],
          "diffuseTexture": {
            "index": 0
          },
          "glossinessFactor": 1.0,
          "specularFactor": [
            0.0,
            0.0,
            0.0
          ]
        }
      },
      "name": "material_0"
    },
    {
      "doubleSided": true,
      "extensions": {
        "KHR_materials_pbrSpecularGlossiness": {
          "diffuseFactor": [
            1.0,
            1.0,
            1.0,
            1.0
          ],
          "diffuseTexture": {
            "index": 0
          },
          "glossinessFactor": 0.0,
          "specularFactor": [
            0.0,
            0.0,
            0.0
          ]
        }
      },
      "name": "material_1"
    },
    {
      "doubleSided": true,
      "extensions": {
        "KHR_materials_pbrSpecularGlossiness": {
          "diffuseFactor": [
            1.0,
            1.0,
            1.0,
            1.0
          ],
          "diffuseTexture": {
            "index": 1
          },
          "glossinessFactor": 0.0,
          "specularFactor": [
            0.0,
            0.0,
            0.0
          ]
        }
      },
      "name": "material_2"
    }
  ],
  "meshes": [
    {
      "name": "Object_0",
      "primitives": [
        {
          "attributes": {
            "COLOR_0": 2,
            "NORMAL": 1,
            "POSITION": 0,
            "TEXCOORD_0": 3
          },
          "indices": 4,
          "material": 0,
          "mode": 4
        }
      ]
    },
    {
      "name": "Object_1",
      "primitives": [
        {
          "attributes": {
            "COLOR_0": 7,
            "NORMAL": 6,
            "POSITION": 5,
            "TEXCOORD_0": 8
          },
          "indices": 9,
          "material": 0,
          "mode": 4
        }
      ]
    },
    {
      "name": "Object_2",
      "primitives": [
        {
          "attributes": {
            "COLOR_0": 12,
            "NORMAL": 11,
            "POSITION": 10,
            "TEXCOORD_0": 13
          },
          "indices": 14,
          "material": 0,
          "mode": 4
        }
      ]
    },
    {
      "name": "Object_3",
      "primitives": [
        {
          "attributes": {
            "COLOR_0": 17,
            "NORMAL": 16,
            "POSITION": 15,
            "TEXCOORD_0": 18
          },
          "indices": 19,
          "material": 0,
          "mode": 4
        }
      ]
    },
    {
      "name": "Object_4",
      "primitives": [
        {
          "attributes": {
            "COLOR_0": 22,
            "NORMAL": 21,
            "POSITION": 20,
            "TEXCOORD_0": 23
          },
          "indices": 24,
          "material": 1,
          "mode": 4
        }
      ]
    },
    {
      "name": "Object_5",
      "primitives": [
        {
          "attributes": {
            "COLOR_0": 27,
            "NORMAL": 26,
            "POSITION": 25,
            "TEXCOORD_0": 28
          },
          "indices": 29,
          "material": 2,
          "mode": 4
        }
      ]
    }
  ],
  "nodes": [
    {
      "children": [
        1
      ],
      "matrix": [
        0.9387958645820618,
        -0.04776547476649292,
        0.3411463499069214,
        0.0,
        -0.3397239148616791,
        -0.2922773659229281,
        0.8939583897590636,
        0.0,
        0.057009007781744,
        -0.9551399946212767,
        -0.2906158566474917,
        0.0,
        -3.180619478225708,
        -6.310291290283208,
        19.09380531311035,
        1.0
      ],
      "name": "Sketchfab_model"
    },
    {
      "children": [
        2,
        3,
        4,
        5,
        6,
        7
      ],
      "name": "chennakeshwaraS14_R3.obj.cleaner.materialmerger.gles"
    },
    {
      "mesh": 0,
      "name": "Object_2"
    },
    {
      "mesh": 1,
      "name": "Object_3"
    },
    {
      "mesh": 2,
      "name": "Object_4"
    },
    {
      "mesh": 3,
      "name": "Object_5"
    },
    {
      "mesh": 4,
      "name": "Object_6"
    },
    {
      "mesh": 5,
      "name": "Object_7"
    }
  ],
  "samplers": [
    {
      "magFilter": 9729,
      "minFilter": 9987,
      "wrapS": 10497,
      "wrapT": 10497
    }
  ],
  "scene": 0,
  "scenes": [
    {
      "name": "Sketchfab_Scene",
      "nodes": [
        0
      ]
    }
  ],
  "textures": [
    {
      "sampler": 0,
      "source": 0
    },
    {
      "sampler": 0,
      "source": 1
    }
  ]
}
