{
  "accessors": [
    {
      "bufferView": 2,
      "componentType": 5126,
      "count": 65532,
      "max": [
        0.11017800122499466,
        -0.37801000475883484,
        0.8618109822273254
      ],
      "min": [
        -0.11029700189828873,
        -1.085710048675537,
        -0.20168599486351013
      ],
      "type": "VEC3"
    },
    {
      "bufferView": 2,
      "byteOffset": 786384,
      "componentType": 5126,
      "count": 65532,
      "max": [
        0.9999812841415405,
        0.9999964237213135,
        0.9999825954437256
      ],
      "min": [
        -0.9999878406524658,
        -0.9999819993972778,
        -0.9999669790267944
      ],
      "type": "VEC3"
    },
    {
      "bufferView": 1,
      "componentType": 5126,
      "count": 65532,
      "max": [
        1.0,
        1.0
      ],
      "min": [
        0.0,
        0.0
      ],
      "type": "VEC2"
    },
    {
      "bufferView": 0,
      "componentType": 5125,
      "count": 382860,
      "type": "SCALAR"
    },
    {
      "bufferView": 2,
      "byteOffset": 1572768,
      "componentType": 5126,
      "count": 65532,
      "max": [
        0.18497300148010254,
        -0.430294007062912,
        0.8363209962844849
      ],
      "min": [
        -0.1859389990568161,
        -0.9900109767913818,
        -0.41041299700737
      ],
      "type": "VEC3"
    },
    {
      "bufferView": 2,
      "byteOffset": 2359152,
      "componentType": 5126,
      "count": 65532,
      "max": [
        0.9999998807907104,
        0.9999604225158691,
        0.9999984502792358
      ],
      "min": [
        -0.9999991655349731,
        -0.9999985694885254,
        -0.9999487400054932
      ],
      "type": "VEC3"
    },
    {
      "bufferView": 1,
      "byteOffset": 524256,
      "componentType": 5126,
      "count": 65532,
      "max": [
        1.0,
        1.0
      ],
      "min": [
        0.0,
        0.0
      ],
      "type": "VEC2"
    },
    {
      "bufferView": 0,
      "byteOffset": 1531440,
      "componentType": 5125,
      "count": 380520,
      "type": "SCALAR"
    },
    {
      "bufferView": 2,
      "byteOffset": 3145536,
      "componentType": 5126,
      "count": 59501,
      "max": [
        0.1534920036792755,
        -0.4593470096588135,
        0.8366490006446838
      ],
      "min": [
        -0.1771019995212555,
        -0.9626719951629639,
        -0.7702400088310242
      ],
      "type": "VEC3"
    },
    {
      "bufferView": 2,
      "byteOffset": 3859548,
      "componentType": 5126,
      "count": 59501,
      "max": [
        0.999981164932251,
        0.999997615814209,
        0.9999778270721436
      ],
      "min": [
        -0.999981164932251,
        -0.9999978542327881,
        -0.9881803393363953
      ],
      "type": "VEC3"
    },
    {
      "bufferView": 1,
      "byteOffset": 1048512,
      "componentType": 5126,
      "count": 59501,
      "max": [
        1.0,
        1.0
      ],
      "min": [
        0.0,
        0.014276999980211258
      ],
      "type": "VEC2"
    },
    {
      "bufferView": 0,
      "byteOffset": 3053520,
      "componentType": 5125,
      "count": 344844,
      "type": "SCALAR"
    },
    {
      "bufferView": 2,
      "byteOffset": 4573560,
      "componentType": 5126,
      "count": 65532,
      "max": [
        0.2283170074224472,
        -0.6200730204582214,
        0.5653359889984131
      ],
      "min": [
        0.08001500368118286,
        -0.8460699915885925,
        0.3330030143260956
      ],
      "type": "VEC3"
    },
    {
      "bufferView": 2,
      "byteOffset": 5359944,
      "componentType": 5126,
      "count": 65532,
      "max": [
        0.9999997615814209,
        1.0,
        0.9999997615814209
      ],
      "min": [
        -0.9999996423721313,
        -1.0,
        -0.9999997615814209
      ],
      "type": "VEC3"
    },
    {
      "bufferView": 1,
      "byteOffset": 1524520,
      "componentType": 5126,
      "count": 65532,
      "max": [
        1.0,
        1.0
      ],
      "min": [
        0.0,
        0.0
      ],
      "type": "VEC2"
    },
    {
      "bufferView": 0,
      "byteOffset": 4432896,
      "componentType": 5125,
      "count": 378702,
      "type": "SCALAR"
    },
    {
      "bufferView": 2,
      "byteOffset": 6146328,
      "componentType": 5126,
      "count": 33883,
      "max": [
        0.1976509988307953,
        -0.6169300079345703,
        0.5651770234107971
      ],
      "min": [
        0.1236409991979599,
        -0.8455139994621277,
        0.4905500113964081
      ],
      "type": "VEC3"
    },
    {
      "bufferView": 2,
      "byteOffset": 6552924,
      "componentType": 5126,
      "count": 33883,
      "max": [
        0.9999996423721313,
        0.9849891066551208,
        0.9999997615814209
      ],
      "min": [
        -0.9999996423721313,
        -1.0,
        -0.9964227080345154
      ],
      "type": "VEC3"
    },
    {
      "bufferView": 1,
      "byteOffset": 2048776,
      "componentType": 5126,
      "count": 33883,
      "max": [
        1.0,
        1.0
      ],
      "min": [
        0.0,
        0.014276999980211258
      ],
      "type": "VEC2"
    },
    {
      "bufferView": 0,
      "byteOffset": 5947704,
      "componentType": 5125,
      "count": 192690,
      "type": "SCALAR"
    },
    {
      "bufferView": 2,
      "byteOffset": 6959520,
      "componentType": 5126,
      "count": 20290,
      "max": [
        0.09888400137424469,
        -0.3688960075378418,
        -0.1269419938325882
      ],
      "min": [
        -0.09900300204753876,
        -1.066743016242981,
        -0.2346380054950714
      ],
      "type": "VEC3"
    },
    {
      "bufferView": 2,
      "byteOffset": 7203000,
      "componentType": 5126,
      "count": 20290,
      "max": [
        0.9563289880752563,
        0.9999758005142212,
        0.28930044174194336
      ],
      "min": [
        -0.9563289880752563,
        -0.999975323677063,
        -0.9999529123306274
      ],
      "type": "VEC3"
    },
    {
      "bufferView": 1,
      "byteOffset": 2319840,
      "componentType": 5126,
      "count": 20290,
      "max": [
        1.0,
        1.0
      ],
      "min": [
        0.0,
        0.6875
      ],
      "type": "VEC2"
    },
    {
      "bufferView": 0,
      "byteOffset": 6718464,
      "componentType": 5125,
      "count": 116736,
      "type": "SCALAR"
    },
    {
      "bufferView": 2,
      "byteOffset": 7446480,
      "componentType": 5126,
      "count": 6033,
      "max": [
        0.11226800084114075,
        -0.46696600317955017,
        -0.7341030240058899
      ],
      "min": [
        -0.11246400326490402,
        -0.6291959881782532,
        -0.8289560079574585
      ],
      "type": "VEC3"
    },
    {
      "bufferView": 2,
      "byteOffset": 7518876,
      "componentType": 5126,
      "count": 6033,
      "max": [
        0.8954295516014099,
        0.9780665636062622,
        -0.2082928717136383
      ],
      "min": [
        -0.8943924307823181,
        -0.9289106130599976,
        -0.999997615814209
      ],
      "type": "VEC3"
    },
    {
      "bufferView": 1,
      "byteOffset": 2482160,
      "componentType": 5126,
      "count": 6033,
      "max": [
        1.0,
        0.1875
      ],
      "min": [
        0.0,
        0.0
      ],
      "type": "VEC2"
    },
    {
      "bufferView": 0,
      "byteOffset": 7185408,
      "componentType": 5125,
      "count": 33792,
      "type": "SCALAR"
    },
    {
      "bufferView": 2,
      "byteOffset": 7591272,
      "componentType": 5126,
      "count": 6033,
      "max": [
        0.11234500259160995,
        -0.7721899747848511,
        -0.7341030240058899
      ],
      "min": [
        -0.11238700151443481,
        -0.9344189763069153,
        -0.8289570212364197
      ],
      "type": "VEC3"
    },
    {
      "bufferView": 2,
      "byteOffset": 7663668,
      "componentType": 5126,
      "count": 6033,
      "max": [
        0.8943924307823181,
        0.9289106130599976,
        -0.2082928717136383
      ],
      "min": [
        -0.8954295516014099,
        -0.9780665636062622,
        -0.999997615814209
      ],
      "type": "VEC3"
    },
    {
      "bufferView": 1,
      "byteOffset": 2530424,
      "componentType": 5126,
      "count": 6033,
      "max": [
        1.0,
        0.1875
      ],
      "min": [
        0.0,
        0.0
      ],
      "type": "VEC2"
    },
    {
      "bufferView": 0,
      "byteOffset": 7320576,
      "componentType": 5125,
      "count": 33792,
      "type": "SCALAR"
    }
  ],
  "asset": {
    "extras": {
      "author": "Cybersoul (https://sketchfab.com/saiyedfahzain191)",
      "license": "CC-BY-4.0 (http://creativecommons.org/licenses/by/4.0/)",
      "source": "https://sketchfab.com/3d-models/mr-bean-teddy-b1226c76b22c4f0ab826f864184fcae1",
      "title": "Mr. Bean Teddy"
    },
    "generator": "Sketchfab-12.63.0",
    "version": "2.0"
  },
  "bufferViews": [
    {
      "buffer": 0,
      "byteLength": 7455744,
      "name": "floatBufferViews",
      "target": 34963
    },
    {
      "buffer": 0,
      "byteLength": 2578688,
      "byteOffset": 7455744,
      "byteStride": 8,
      "name": "floatBufferViews",
      "target": 34962
    },
    {
      "buffer": 0,
      "byteLength": 7736064,
      "byteOffset": 10034432,
      "byteStride": 12,
      "name": "floatBufferViews",
      "target": 34962
    }
  ],
  "buffers": [
    {
      "byteLength": 17770496,
      "uri": "scene.bin"
    }
  ],
  "materials": [
    {
      "doubleSided": true,
      "name": "Material.001",
      "pbrMetallicRoughness": {
        "baseColorFactor": [
          0.195988,
          0.073816,
          0.0,
          1.0
        ],
        "metallicFactor": 0.0
      }
    },
    {
      "doubleSided": true,
      "name": "Material.002",
      "pbrMetallicRoughness": {
        "baseColorFactor": [
          0.0,
          0.0,
          0.0,
          1.0
        ],
        "metallicFactor": 0.0,
        "roughnessFactor": 0.7685681240319922
      }
    },
    {
      "doubleSided": true,
      "name": "Material.003",
      "pbrMetallicRoughness": {
        "baseColorFactor": [
          0.8,
          0.461556,
          0.099116,
          1.0
        ],
        "metallicFactor": 0.0,
        "roughnessFactor": 0.8063508326896291
      }
    },
    {
      "doubleSided": true,
      "name": "Material.004",
      "pbrMetallicRoughness": {
        "baseColorFactor": [
          1.0,
          0.586595,
          0.169022,
          1.0
        ],
        "metallicFactor": 0.0,
        "roughnessFactor": 0.8063508326896291
      }
    },
    {
      "doubleSided": true,
      "name": "Material.005",
      "pbrMetallicRoughness": {
        "baseColorFactor": [
          0.8,
          0.548715,
          0.256844,
          1.0
        ],
        "metallicFactor": 0.0,
        "roughnessFactor": 0.8063508326896291
      }
    }
  ],
  "meshes": [
    {
      "name": "Object_0",
      "primitives": [
        {
          "attributes": {
            "NORMAL": 1,
            "POSITION": 0,
            "TEXCOORD_0": 2
          },
          "indices": 3,
          "material": 0,
          "mode": 4
        }
      ]
    },
    {
      "name": "Object_1",
      "primitives": [
        {
          "attributes": {
            "NORMAL": 5,
            "POSITION": 4,
            "TEXCOORD_0": 6
          },
          "indices": 7,
          "material": 0,
          "mode": 4
        }
      ]
    },
    {
      "name": "Object_2",
      "primitives": [
        {
          "attributes": {
            "NORMAL": 9,
            "POSITION": 8,
            "TEXCOORD_0": 10
          },
          "indices": 11,
          "material": 0,
          "mode": 4
        }
      ]
    },
    {
      "name": "Object_3",
      "primitives": [
        {
          "attributes": {
            "NORMAL": 13,
            "POSITION": 12,
            "TEXCOORD_0": 14
          },
          "indices": 15,
          "material": 1,
          "mode": 4
        }
      ]
    },
    {
      "name": "Object_4",
      "primitives": [
        {
          "attributes": {
            "NORMAL": 17,
            "POSITION": 16,
            "TEXCOORD_0": 18
          },
          "indices": 19,
          "material": 1,
          "mode": 4
        }
      ]
    },
    {
      "name": "Object_5",
      "primitives": [
        {
          "attributes": {
            "NORMAL": 21,
            "POSITION": 20,
            "TEXCOORD_0": 22
          },
          "indices": 23,
          "material": 2,
          "mode": 4
        }
      ]
    },
    {
      "name": "Object_6",
      "primitives": [
        {
          "attributes": {
            "NORMAL": 25,
            "POSITION": 24,
            "TEXCOORD_0": 26
          },
          "indices": 27,
          "material": 3,
          "mode": 4
        }
      ]
    },
    {
      "name": "Object_7",
      "primitives": [
        {
          "attributes": {
            "NORMAL": 29,
            "POSITION": 28,
            "TEXCOORD_0": 30
          },
          "indices": 31,
          "material": 4,
          "mode": 4
        }
      ]
    }
  ],
  "nodes": [
    {
      "children": [
        1
      ],
      "matrix": [
        1.0,
        0.0,
        0.0,
        0.0,
        0.0,
        2.220446049250313e-16,
        -1.0,
        0.0,
        0.0,
        1.0,
        2.220446049250313e-16,
        0.0,
        0.0,
        0.0,
        0.0,
        1.0
      ],
      "name": "Sketchfab_model"
    },
    {
      "children": [
        2,
        3,
        4,
        5,
        6,
        7,
        8,
        9
      ],
      "name": "Tedd.obj.cleaner.materialmerger.gles"
    },
    {
      "mesh": 0,
      "name": "Object_2"
    },
    {
      "mesh": 1,
      "name": "Object_3"
    },
    {
      "mesh": 2,
      "name": "Object_4"
    },
    {
      "mesh": 3,
      "name": "Object_5"
    },
    {
      "mesh": 4,
      "name": "Object_6"
    },
    {
      "mesh": 5,
      "name": "Object_7"
    },
    {
      "mesh": 6,
      "name": "Object_8"
    },
    {
      "mesh": 7,
      "name": "Object_9"
    }
  ],
  "scene": 0,
  "scenes": [
    {
      "name": "Sketchfab_Scene",
      "nodes": [
        0
      ]
    }
  ]
}
